<svg width="580" height="400" xmlns="http://www.w3.org/2000/svg">
 <!-- Created with Method Draw - http://github.com/duopixel/Method-Draw/ -->
 <g>
  <title>background</title>
  <rect fill="#fff" id="canvas_background" height="402" width="582" y="-1" x="-1"/>
  <g display="none" overflow="visible" y="0" x="0" height="100%" width="100%" id="canvasGrid">
   <rect fill="url(#gridpattern)" stroke-width="0" y="0" x="0" height="100%" width="100%"/>
  </g>
 </g>
 <g>
  <title>Layer 1</title>
  <text stroke="#000" transform="matrix(3.614407015171878,0,0,4.707586288452148,-508.5923718287362,-542.9296671152115) " xml:space="preserve" text-anchor="start" font-family="Helvetica, Arial, sans-serif" font-size="10" id="svg_1" y="155.770833" x="194.466417" stroke-width="0" fill="#000000">Şeyma Ye</text>
  <path d="m269.5,182.770828c0,0 -0.662506,-0.310013 1,-3c0.7435,-1.203003 4,-4 6,-7l0,-1" id="svg_3" fill-opacity="null" stroke-opacity="null" stroke-width="0" stroke="#000" fill="none"/>
  <path stroke="#000" id="svg_4" d="m376.360537,112.370006l0,9.332647c-16.209158,1.309845 -28.976541,15.197181 -28.976541,32.135862c0,-3.051344 3.528265,-5.529631 7.873092,-5.529631c4.347372,0 7.875636,2.478287 7.875636,5.529631c0,-3.051344 3.525721,-5.529631 7.873092,-5.529631c2.068118,0 3.947993,0.5805 5.35472,1.495903l0,45.502237c0,2.03547 -1.129452,3.68394 -2.518372,3.68394c-1.391464,0 -2.520916,-1.64847 -2.520916,-3.68394l0,-1.845691l-5.039288,0l0,1.845691c0,6.106409 3.388355,11.062983 7.560204,11.062983s7.55766,-4.956573 7.55766,-11.062983l0,-45.502237c1.406727,-0.919124 3.289147,-1.495903 5.357264,-1.495903c4.342284,0 7.875636,2.478287 7.875636,5.529631c0,-3.051344 3.528265,-5.529631 7.870549,-5.529631c4.352459,0 7.880724,2.478287 7.880724,5.529631c0,-16.934959 -12.769927,-30.822295 -28.981629,-32.135862l0,-9.332647l-5.041832,0z" stroke-opacity="null" stroke-width="0" fill="#bf0000"/>
 </g>
</svg>